<?xml version="1.0" encoding="UTF-8"?>
<svg id="Layer_1" xmlns="http://www.w3.org/2000/svg" version="1.1" viewBox="0 0 16 16">
  <!-- Generator: Adobe Illustrator 29.8.2, SVG Export Plug-In . SVG Version: 2.1.1 Build 3)  -->
  <path d="M8,.4C5.6.4,3.7,2.4,3.7,4.8v1.8c-.7,0-1.2.5-1.2,1.2v6.6c0,.7.5,1.2,1.2,1.2h8.6c.7,0,1.2-.5,1.2-1.2v-6.6c0-.7-.5-1.2-1.2-1.2v-1.8c0-2.5-1.9-4.4-4.3-4.4h0ZM8,2.1c1.5,0,2.7,1.2,2.7,2.7v1.8h-5.5v-1.8c0-1.5,1.2-2.7,2.7-2.7h0ZM8,8.9c.7,0,1.2.5,1.2,1.2s-.2.8-.5,1c0,0,0,.1,0,.2v1.4c0,.4-.3.7-.7.7s-.7-.3-.7-.7v-1.4c0,0,0-.1,0-.2-.3-.2-.5-.6-.5-1,0-.7.5-1.2,1.2-1.2h0Z"/>
</svg>