<?xml version="1.0" encoding="UTF-8"?>
<svg id="Layer_1" xmlns="http://www.w3.org/2000/svg" version="1.1" viewBox="0 0 16 16">
  <!-- Generator: Adobe Illustrator 29.8.2, SVG Export Plug-In . SVG Version: 2.1.1 Build 3)  -->
  <path d="M.8,13.2c0,0,.1.2.3.2h5.6c.1,0,.2,0,.3-.2s0-.2,0-.3l-2.8-4.2c0,0-.1-.1-.2-.1s-.2,0-.2.1L.8,12.9c0,0,0,.2,0,.3ZM3.9,9.4l2.3,3.4H1.6l2.3-3.4h0Z"/>
  <path d="M15.2,12.9l-2.8-4.2c-.1-.2-.4-.2-.5,0l-2.8,4.2c0,0,0,.2,0,.3s.1.2.3.2h5.6c.1,0,.2,0,.3-.2s0-.2,0-.3ZM9.9,12.8l2.3-3.4,2.3,3.4h-4.6,0Z"/>
  <path d="M15,2.7h-5.6c-.1,0-.2,0-.3.2s0,.2,0,.3l2.8,4.2c0,0,.1.1.2.1s.2,0,.2-.1l2.8-4.2c0,0,0-.2,0-.3,0,0-.1-.2-.3-.2ZM12.1,6.6l-2.3-3.4h4.6l-2.3,3.4h0Z"/>
  <path d="M.8,2.8c0,0,0,.2,0,.3l2.8,4.2c0,0,.1.1.2.1s.2,0,.2-.1l2.8-4.2c0,0,0-.2,0-.3s-.1-.2-.3-.2H1c-.1,0-.2,0-.3.2ZM6.1,3.2l-2.3,3.4L1.6,3.2h4.6Z"/>
  <path d="M8.2,5.1c0,0-.1-.1-.2-.1h0c0,0-.2,0-.2.1l-2,2.7c0,0,0,.2,0,.3l2,2.7c0,0,.1.1.2.1h0c0,0,.2,0,.2-.1l2-2.7c0,0,0-.2,0-.3,0,0-2-2.7-2-2.7ZM8,10.2l-1.6-2.2,1.6-2.2,1.6,2.2-1.6,2.2Z"/>
</svg>