<?xml version="1.0" encoding="UTF-8"?><svg id="Layer_1" xmlns="http://www.w3.org/2000/svg" viewBox="0 0 100 100"><defs><style>.cls-1{fill:none;}</style></defs><rect class="cls-1" y="15.49" width="98.1" height="69.02"/><path d="M10.65,17.69c0-1.47.73-2.2,2.2-2.2h2.6c1.47,0,2.2.73,2.2,2.2v20.4h9.48c1.47,0,2.2.73,2.2,2.2v1.6c0,1.47-.73,2.2-2.2,2.2h-14.28c-1.47,0-2.2-.73-2.2-2.2v-24.2Z"/><path d="M38.25,17.29c.4-1.2,1.23-1.8,2.48-1.8h3.6c1.25,0,2.08.6,2.48,1.8l8.28,24.28c.27.77.23,1.39-.1,1.84-.33.45-.9.68-1.7.68h-2.64c-1.25,0-2.08-.61-2.48-1.84l-1.2-4.16h-8.92l-1.2,4.16c-.35,1.23-1.16,1.84-2.44,1.84h-2.64c-.8,0-1.37-.23-1.7-.68-.33-.45-.37-1.07-.1-1.84l8.28-24.28ZM45.33,32.49l-1.6-5.56c-.13-.45-.26-.96-.38-1.52-.12-.56-.25-1.09-.38-1.6-.13-.59-.27-1.19-.4-1.8h-.08c-.13.61-.27,1.21-.4,1.8-.13.51-.26,1.04-.38,1.6s-.25,1.07-.38,1.52l-1.64,5.56h5.64Z"/><path d="M59.53,17.61c.13-1.41.89-2.12,2.28-2.12h3.6c1.25,0,2.08.6,2.48,1.8l3.56,10.28c.16.45.33.95.5,1.5.17.55.33,1.06.46,1.54l.48,1.68h.08c.16-.56.32-1.12.48-1.68.13-.48.29-.99.46-1.54.17-.55.34-1.05.5-1.5l3.56-10.28c.4-1.2,1.23-1.8,2.48-1.8h3.6c1.39,0,2.15.71,2.28,2.12l1.96,24.2c.05.72-.1,1.28-.46,1.68-.36.4-.9.6-1.62.6h-2.6c-1.39,0-2.15-.71-2.28-2.12l-.72-10.76c-.05-.53-.09-1.09-.1-1.66-.01-.57,0-1.09.02-1.54,0-.53.03-1.07.08-1.6h-.08c-.19.59-.37,1.16-.56,1.72-.16.48-.33,1-.52,1.56s-.36,1.07-.52,1.52l-2.36,6.52c-.43,1.17-1.27,1.76-2.52,1.76h-2.24c-1.25,0-2.09-.59-2.52-1.76l-2.36-6.52c-.16-.45-.33-.96-.52-1.52s-.36-1.08-.52-1.56c-.19-.56-.37-1.13-.56-1.72h-.08c0,.53.01,1.07.04,1.6,0,.45,0,.97.02,1.54.01.57,0,1.13-.06,1.66l-.72,10.76c-.13,1.41-.89,2.12-2.28,2.12h-2.64c-.72,0-1.26-.2-1.62-.6s-.51-.96-.46-1.68l2-24.2Z"/><path d="M3.25,57.69c0-1.47.73-2.2,2.2-2.2h13.52c1.47,0,2.2.73,2.2,2.2v1.6c0,1.47-.73,2.2-2.2,2.2h-8.72v5.2h6.52c1.47,0,2.2.73,2.2,2.2v1.6c0,1.47-.73,2.2-2.2,2.2h-6.52v5.4h9.28c1.47,0,2.2.73,2.2,2.2v1.6c0,1.47-.73,2.2-2.2,2.2H5.45c-1.47,0-2.2-.73-2.2-2.2v-24.2Z"/><path d="M25.65,57.69c0-1.47.73-2.2,2.2-2.2h2.6c1.47,0,2.2.73,2.2,2.2v20.4h9.48c1.47,0,2.2.73,2.2,2.2v1.6c0,1.47-.73,2.2-2.2,2.2h-14.28c-1.47,0-2.2-.73-2.2-2.2v-24.2Z"/><path d="M47.21,57.69c0-1.47.73-2.2,2.2-2.2h2.6c1.47,0,2.2.73,2.2,2.2v20.4h9.48c1.47,0,2.2.73,2.2,2.2v1.6c0,1.47-.73,2.2-2.2,2.2h-14.28c-1.47,0-2.2-.73-2.2-2.2v-24.2Z"/><path d="M66.41,69.61c0-2.05.36-3.97,1.08-5.74.72-1.77,1.74-3.32,3.06-4.64,1.32-1.32,2.9-2.35,4.74-3.1,1.84-.75,3.87-1.12,6.08-1.12s4.24.37,6.08,1.12c1.84.75,3.42,1.78,4.74,3.1s2.34,2.87,3.06,4.64,1.08,3.69,1.08,5.74-.36,4.07-1.08,5.88-1.74,3.39-3.06,4.74c-1.32,1.35-2.9,2.41-4.74,3.18-1.84.77-3.87,1.16-6.08,1.16s-4.24-.39-6.08-1.16c-1.84-.77-3.42-1.83-4.74-3.18-1.32-1.35-2.34-2.93-3.06-4.74-.72-1.81-1.08-3.77-1.08-5.88ZM73.65,69.61c0,1.23.19,2.36.58,3.4s.92,1.94,1.6,2.7c.68.76,1.49,1.36,2.44,1.8.95.44,1.98.66,3.1.66s2.15-.22,3.1-.66c.95-.44,1.76-1.04,2.44-1.8.68-.76,1.21-1.66,1.6-2.7s.58-2.17.58-3.4-.19-2.26-.58-3.26-.92-1.87-1.6-2.6c-.68-.73-1.49-1.31-2.44-1.72s-1.98-.62-3.1-.62-2.15.21-3.1.62-1.76.99-2.44,1.72c-.68.73-1.21,1.6-1.6,2.6s-.58,2.09-.58,3.26Z"/></svg>