<?xml version="1.0" encoding="UTF-8"?>
<svg id="Layer_1" xmlns="http://www.w3.org/2000/svg" version="1.1" viewBox="0 0 16 16">
  <!-- Generator: Adobe Illustrator 29.8.2, SVG Export Plug-In . SVG Version: 2.1.1 Build 3)  -->
  <defs>
    <style>
      .st0 {
        fill: none;
      }
    </style>
  </defs>
  <rect class="st0" y="2.5" width="15.7" height="11"/>
  <path d="M1.7,2.8c0-.2.1-.4.4-.4h.4c.2,0,.4.1.4.4v3.3h1.5c.2,0,.4.1.4.4v.3c0,.2-.1.4-.4.4h-2.3c-.2,0-.4-.1-.4-.4,0,0,0-3.9,0-3.9Z"/>
  <path d="M6.1,2.8c0-.2.2-.3.4-.3h.6c.2,0,.3,0,.4.3l1.3,3.9c0,.1,0,.2,0,.3,0,0-.1.1-.3.1h-.4c-.2,0-.3,0-.4-.3l-.2-.7h-1.4l-.2.7c0,.2-.2.3-.4.3h-.4c-.1,0-.2,0-.3-.1s0-.2,0-.3c0,0,1.3-3.9,1.3-3.9ZM7.3,5.2l-.3-.9c0,0,0-.2,0-.2,0,0,0-.2,0-.3,0,0,0-.2,0-.3h0c0,0,0,.2,0,.3,0,0,0,.2,0,.3s0,.2,0,.2l-.3.9h.9Z"/>
  <path d="M9.5,2.8c0-.2.1-.3.4-.3h.6c.2,0,.3,0,.4.3l.6,1.6c0,0,0,.2,0,.2s0,.2,0,.2v.3h0c0,0,0-.2,0-.3,0,0,0-.2,0-.2,0,0,0-.2,0-.2l.6-1.6c0-.2.2-.3.4-.3h.6c.2,0,.3.1.4.3l.3,3.9c0,.1,0,.2,0,.3s-.1,0-.3,0h-.4c-.2,0-.3-.1-.4-.3v-1.7c-.1,0-.1-.2-.1-.3s0-.2,0-.2c0,0,0-.2,0-.3h0c0,0,0,.2,0,.3,0,0,0,.2,0,.2s0,.2,0,.2l-.4,1c0,.2-.2.3-.4.3h-.4c-.2,0-.3,0-.4-.3l-.4-1c0,0,0-.2,0-.2s0-.2,0-.2c0,0,0-.2,0-.3h0c0,0,0,.2,0,.3,0,0,0,.2,0,.2,0,0,0,.2,0,.3v1.7c-.1.2-.3.3-.5.3h-.4c-.1,0-.2,0-.3,0s0-.2,0-.3l.3-3.9h0Z"/>
  <path d="M.5,9.2c0-.2.1-.4.4-.4h2.2c.2,0,.4.1.4.4v.3c0,.2-.1.4-.4.4h-1.4v.8h1c.2,0,.4.1.4.4v.3c0,.2-.1.4-.4.4h-1v.9h1.5c.2,0,.4.1.4.4v.3c0,.2-.1.4-.4.4H.9c-.2,0-.4-.1-.4-.4v-3.9h0Z"/>
  <path d="M4.1,9.2c0-.2.1-.4.4-.4h.4c.2,0,.4.1.4.4v3.3h1.5c.2,0,.4.1.4.4v.3c0,.2-.1.4-.4.4h-2.3c-.2,0-.4-.1-.4-.4,0,0,0-3.9,0-3.9Z"/>
  <path d="M7.6,9.2c0-.2.1-.4.4-.4h.4c.2,0,.4.1.4.4v3.3h1.5c.2,0,.4.1.4.4v.3c0,.2-.1.4-.4.4h-2.3c-.2,0-.4-.1-.4-.4,0,0,0-3.9,0-3.9Z"/>
  <path d="M10.6,11.1c0-.3,0-.6.2-.9.1-.3.3-.5.5-.7s.5-.4.8-.5.6-.2,1-.2.7,0,1,.2c.3.1.5.3.8.5s.4.5.5.7c.1.3.2.6.2.9s0,.7-.2.9-.3.5-.5.8-.5.4-.8.5-.6.2-1,.2-.7,0-1-.2c-.3-.1-.5-.3-.8-.5s-.4-.5-.5-.8-.2-.6-.2-.9ZM11.8,11.1c0,.2,0,.4,0,.5s.1.3.3.4c.1.1.2.2.4.3.2,0,.3.1.5.1s.3,0,.5-.1.3-.2.4-.3.2-.3.3-.4,0-.3,0-.5,0-.4,0-.5-.1-.3-.3-.4c-.1-.1-.2-.2-.4-.3s-.3,0-.5,0-.3,0-.5,0-.3.2-.4.3c-.1.1-.2.3-.3.4s0,.3,0,.5Z"/>
</svg>