<?xml version="1.0" encoding="UTF-8"?><svg id="Layer_1" xmlns="http://www.w3.org/2000/svg" viewBox="0 0 100 100"><path d="M58.57,57.47c-1.38,0-2.5,1.12-2.5,2.5v7.21c0,1.38,1.12,2.5,2.5,2.5h14.57v-12.2h-14.57Z"/><path d="M58.57,42.52h14.57v-12.2h-14.57c-1.38,0-2.5,1.12-2.5,2.5v7.21c0,1.38,1.12,2.5,2.5,2.5h0Z"/><path d="M70.22,43.89h7.44v12.22h-7.44v-12.22Z"/><path d="M89.7,30.32h-15.19v12.2h3.84c.38,0,.68.3.68.68v13.58c0,.38-.3.68-.68.68h-3.84v12.2h15.19c1.29,0,2.34-1.05,2.34-2.34v-34.67c0-1.29-1.05-2.34-2.34-2.34h0ZM83.95,65.45c-1.64,0-2.97-1.34-2.97-2.97s1.34-2.97,2.97-2.97,2.97,1.34,2.97,2.97-1.34,2.97-2.97,2.97ZM83.95,40.5c-1.64,0-2.97-1.34-2.97-2.97s1.34-2.97,2.97-2.97,2.97,1.34,2.97,2.97-1.34,2.97-2.97,2.97Z"/><path d="M54.71,61.24v-1.27c0-2.13,1.73-3.86,3.86-3.86h10.28v-12.22h-10.28c-2.13,0-3.86-1.73-3.86-3.86v-1.27H11.7c-2.07,0-3.75,1.68-3.75,3.75v14.99c0,2.07,1.68,3.75,3.75,3.75h43.01ZM35.45,46.36c2.01,0,3.64,1.63,3.64,3.64s-1.63,3.64-3.64,3.64-3.64-1.63-3.64-3.64,1.63-3.64,3.64-3.64ZM16.49,46.36c2.01,0,3.64,1.63,3.64,3.64s-1.63,3.64-3.64,3.64-3.64-1.63-3.64-3.64,1.63-3.64,3.64-3.64Z"/></svg>