<?xml version="1.0" encoding="UTF-8"?>
<svg id="Layer_1" xmlns="http://www.w3.org/2000/svg" version="1.1" viewBox="0 0 16 16">
  <!-- Generator: Adobe Illustrator 29.8.2, SVG Export Plug-In . SVG Version: 2.1.1 Build 3)  -->
  <path d="M9.4,9.2c-.2,0-.4.2-.4.4v1.2c0,.2.2.4.4.4h2.3v-2h-2.3Z"/>
  <path d="M9.4,6.8h2.3v-2h-2.3c-.2,0-.4.2-.4.4v1.2c0,.2.2.4.4.4h0Z"/>
  <path d="M11.2,7h1.2v2h-1.2v-2Z"/>
  <path d="M14.4,4.9h-2.4v2h.6c0,0,.1,0,.1.1v2.2c0,0,0,.1-.1.1h-.6v2h2.4c.2,0,.4-.2.4-.4v-5.5c0-.2-.2-.4-.4-.4h0ZM13.4,10.5c-.3,0-.5-.2-.5-.5s.2-.5.5-.5.5.2.5.5-.2.5-.5.5ZM13.4,6.5c-.3,0-.5-.2-.5-.5s.2-.5.5-.5.5.2.5.5-.2.5-.5.5Z"/>
  <path d="M8.8,9.8v-.2c0-.3.3-.6.6-.6h1.6v-2h-1.6c-.3,0-.6-.3-.6-.6v-.2H1.9c-.3,0-.6.3-.6.6v2.4c0,.3.3.6.6.6h6.9ZM5.7,7.4c.3,0,.6.3.6.6s-.3.6-.6.6-.6-.3-.6-.6.3-.6.6-.6ZM2.6,7.4c.3,0,.6.3.6.6s-.3.6-.6.6-.6-.3-.6-.6.3-.6.6-.6Z"/>
</svg>