<?xml version="1.0" encoding="UTF-8"?>
<svg id="Layer_1" xmlns="http://www.w3.org/2000/svg" version="1.1" viewBox="0 0 32 32">
  <!-- Generator: Adobe Illustrator 29.8.2, SVG Export Plug-In . SVG Version: 2.1.1 Build 3)  -->
  <path d="M18.7,18.4c-.4,0-.8.4-.8.8v2.3c0,.4.4.8.8.8h4.7v-3.9h-4.7Z"/>
  <path d="M18.7,13.6h4.7v-3.9h-4.7c-.4,0-.8.4-.8.8v2.3c0,.4.4.8.8.8h0Z"/>
  <path d="M22.5,14h2.4v3.9h-2.4v-3.9Z"/>
  <path d="M28.7,9.7h-4.9v3.9h1.2c.1,0,.2,0,.2.2v4.3c0,.1,0,.2-.2.2h-1.2v3.9h4.9c.4,0,.7-.3.7-.7v-11.1c0-.4-.3-.7-.7-.7h0ZM26.9,20.9c-.5,0-1-.4-1-1s.4-1,1-1,1,.4,1,1-.4,1-1,1ZM26.9,13c-.5,0-1-.4-1-1s.4-1,1-1,1,.4,1,1-.4,1-1,1Z"/>
  <path d="M17.5,19.6v-.4c0-.7.6-1.2,1.2-1.2h3.3v-3.9h-3.3c-.7,0-1.2-.6-1.2-1.2v-.4H3.7c-.7,0-1.2.5-1.2,1.2v4.8c0,.7.5,1.2,1.2,1.2h13.8ZM11.3,14.8c.6,0,1.2.5,1.2,1.2s-.5,1.2-1.2,1.2-1.2-.5-1.2-1.2.5-1.2,1.2-1.2ZM5.3,14.8c.6,0,1.2.5,1.2,1.2s-.5,1.2-1.2,1.2-1.2-.5-1.2-1.2.5-1.2,1.2-1.2Z"/>
</svg>