<?xml version="1.0" encoding="UTF-8"?>
<svg id="Layer_1" xmlns="http://www.w3.org/2000/svg" version="1.1" viewBox="0 0 32 32">
  <!-- Generator: Adobe Illustrator 29.8.2, SVG Export Plug-In . SVG Version: 2.1.1 Build 3)  -->
  <defs>
    <style>
      .st0 {
        fill: none;
      }
    </style>
  </defs>
  <rect class="st0" y="5" width="31.4" height="22.1"/>
  <path d="M3.4,5.7c0-.5.2-.7.7-.7h.8c.5,0,.7.2.7.7v6.5h3c.5,0,.7.2.7.7v.5c0,.5-.2.7-.7.7h-4.6c-.5,0-.7-.2-.7-.7,0,0,0-7.7,0-7.7Z"/>
  <path d="M12.2,5.5c.1-.4.4-.6.8-.6h1.2c.4,0,.7.2.8.6l2.6,7.8c0,.2,0,.4,0,.6-.1.1-.3.2-.5.2h-.8c-.4,0-.7-.2-.8-.6l-.4-1.3h-2.9l-.4,1.3c-.1.4-.4.6-.8.6h-.8c-.3,0-.4,0-.5-.2s-.1-.3,0-.6c0,0,2.6-7.8,2.6-7.8ZM14.5,10.4l-.5-1.8c0-.1,0-.3-.1-.5,0-.2,0-.3-.1-.5,0-.2,0-.4-.1-.6h0c0,.2,0,.4-.1.6,0,.2,0,.3-.1.5s0,.3-.1.5l-.5,1.8h1.8Z"/>
  <path d="M19,5.6c0-.5.3-.7.7-.7h1.2c.4,0,.7.2.8.6l1.1,3.3c0,.1.1.3.2.5s.1.3.1.5l.2.5h0c0-.2.1-.4.2-.5,0-.2,0-.3.1-.5,0-.2.1-.3.2-.5l1.1-3.3c.1-.4.4-.6.8-.6h1.2c.4,0,.7.2.7.7l.6,7.7c0,.2,0,.4-.1.5s-.3.2-.5.2h-.8c-.4,0-.7-.2-.7-.7l-.2-3.4c0-.2,0-.3,0-.5s0-.3,0-.5c0-.2,0-.3,0-.5h0c0,.2-.1.4-.2.6,0,.2-.1.3-.2.5s-.1.3-.2.5l-.8,2.1c-.1.4-.4.6-.8.6h-.7c-.4,0-.7-.2-.8-.6l-.8-2.1c0-.1-.1-.3-.2-.5s-.1-.3-.2-.5c0-.2-.1-.4-.2-.6h0c0,.2,0,.3,0,.5,0,.1,0,.3,0,.5,0,.2,0,.4,0,.5l-.2,3.4c0,.5-.3.7-.7.7h-.8c-.2,0-.4,0-.5-.2s-.2-.3-.1-.5l.6-7.7h0Z"/>
  <path d="M1,18.5c0-.5.2-.7.7-.7h4.3c.5,0,.7.2.7.7v.5c0,.5-.2.7-.7.7h-2.8v1.7h2.1c.5,0,.7.2.7.7v.5c0,.5-.2.7-.7.7h-2.1v1.7h3c.5,0,.7.2.7.7v.5c0,.5-.2.7-.7.7H1.7c-.5,0-.7-.2-.7-.7v-7.7h0Z"/>
  <path d="M8.2,18.5c0-.5.2-.7.7-.7h.8c.5,0,.7.2.7.7v6.5h3c.5,0,.7.2.7.7v.5c0,.5-.2.7-.7.7h-4.6c-.5,0-.7-.2-.7-.7,0,0,0-7.7,0-7.7Z"/>
  <path d="M15.1,18.5c0-.5.2-.7.7-.7h.8c.5,0,.7.2.7.7v6.5h3c.5,0,.7.2.7.7v.5c0,.5-.2.7-.7.7h-4.6c-.5,0-.7-.2-.7-.7,0,0,0-7.7,0-7.7Z"/>
  <path d="M21.3,22.3c0-.7.1-1.3.3-1.8.2-.6.6-1.1,1-1.5s.9-.8,1.5-1,1.2-.4,1.9-.4,1.4.1,1.9.4c.6.2,1.1.6,1.5,1s.7.9,1,1.5c.2.6.3,1.2.3,1.8s-.1,1.3-.3,1.9-.6,1.1-1,1.5-.9.8-1.5,1-1.2.4-1.9.4-1.4-.1-1.9-.4c-.6-.2-1.1-.6-1.5-1s-.7-.9-1-1.5-.3-1.2-.3-1.9ZM23.6,22.3c0,.4,0,.8.2,1.1s.3.6.5.9c.2.2.5.4.8.6.3.1.6.2,1,.2s.7,0,1-.2.6-.3.8-.6.4-.5.5-.9.2-.7.2-1.1,0-.7-.2-1-.3-.6-.5-.8c-.2-.2-.5-.4-.8-.6s-.6-.2-1-.2-.7,0-1,.2-.6.3-.8.6c-.2.2-.4.5-.5.8s-.2.7-.2,1Z"/>
</svg>