<?xml version="1.0" encoding="UTF-8"?>
<svg id="Layer_1" xmlns="http://www.w3.org/2000/svg" version="1.1" viewBox="0 0 32 32">
  <!-- Generator: Adobe Illustrator 29.8.2, SVG Export Plug-In . SVG Version: 2.1.1 Build 3)  -->
  <path d="M1.6,26.4c0,.2.3.3.5.3h11.3c.2,0,.4-.1.5-.3s0-.4,0-.6l-5.6-8.3c-.1-.2-.3-.2-.5-.2s-.4,0-.5.2L1.6,25.8c-.1.2-.1.4,0,.6ZM7.7,18.8l4.6,6.7H3.2l4.6-6.7h0Z"/>
  <path d="M30.4,25.8l-5.6-8.3c-.2-.3-.7-.3-.9,0l-5.6,8.3c-.1.2-.1.4,0,.6s.3.3.5.3h11.3c.2,0,.4-.1.5-.3s0-.4,0-.6ZM19.7,25.5l4.6-6.7,4.6,6.7h-9.1,0Z"/>
  <path d="M29.9,5.3h-11.3c-.2,0-.4.1-.5.3s0,.4,0,.6l5.6,8.3c.1.2.3.2.5.2s.4,0,.5-.2l5.6-8.3c.1-.2.1-.4,0-.6,0-.2-.3-.3-.5-.3ZM24.3,13.2l-4.6-6.7h9.1l-4.6,6.7h0Z"/>
  <path d="M1.6,5.6c0,.2,0,.4,0,.6l5.6,8.3c.1.2.3.2.5.2s.4,0,.5-.2l5.6-8.3c.1-.2.1-.4,0-.6s-.3-.3-.5-.3H2.1c-.2,0-.4.1-.5.3ZM12.3,6.5l-4.6,6.7L3.2,6.5h9.1Z"/>
  <path d="M16.5,10.2c-.1-.1-.3-.2-.5-.2h0c-.2,0-.4,0-.5.2l-3.9,5.5c-.1.2-.1.5,0,.7l3.9,5.5c.1.1.3.2.5.2h0c.2,0,.4,0,.5-.2l3.9-5.5c.1-.2.1-.5,0-.7,0,0-3.9-5.5-3.9-5.5ZM16,20.5l-3.2-4.5,3.2-4.5,3.2,4.5-3.2,4.5Z"/>
</svg>