<?xml version="1.0" encoding="UTF-8"?><svg id="Layer_1" xmlns="http://www.w3.org/2000/svg" viewBox="0 0 16 16"><path d="M11.28,2.31c.11.11.11.29,0,.41-.11.11-.29.11-.41,0-.22-.22-.6-.22-.81,0-.06.06-.13.08-.2.08s-.15-.03-.2-.08c-.11-.11-.11-.29,0-.41.22-.22.51-.34.81-.34s.59.12.81.34ZM14.69,7.38c-.69.69-1.69.93-2.61.62-.56-.18-1.16-.05-1.55.34l-2.17,2.17c-.41.41-.55,1-.37,1.51.36,1.03.03,2.18-.83,2.87-.46.37-1.03.55-1.59.55s-1.11-.18-1.57-.53c-.6-.47-.96-1.17-1-1.91-.63-.03-1.24-.29-1.69-.75-.56-.56-.83-1.34-.73-2.14s.56-1.49,1.26-1.91c.63-.38,1.4-.45,2.11-.21.56.19,1.15.07,1.54-.33l2.16-2.17c.41-.41.55-1,.37-1.52-.37-1.03-.04-2.19.82-2.88.91-.73,2.24-.74,3.16-.03.6.47.97,1.17,1,1.91.63.03,1.24.29,1.69.75,1,1,1,2.63,0,3.63h0ZM14.29,4.15c-.41-.41-.98-.62-1.55-.58-.08,0-.17-.02-.22-.08s-.09-.14-.08-.22c.05-.67-.24-1.31-.78-1.73-.72-.55-1.75-.54-2.45.02-.67.53-.92,1.43-.64,2.23.26.72.06,1.55-.5,2.12l-2.16,2.17c-.55.55-1.37.73-2.13.46-.55-.19-1.14-.13-1.63.16-.55.33-.91.87-.99,1.48-.08.62.13,1.22.57,1.66.41.41.97.62,1.55.58h.02c.08,0,.15.03.2.08.06.06.09.14.08.22-.05.67.24,1.31.77,1.72.71.55,1.74.55,2.45-.01.67-.53.93-1.43.65-2.23-.25-.72-.05-1.55.51-2.11l2.17-2.17c.55-.55,1.37-.73,2.14-.48.72.23,1.5.05,2.03-.48.78-.78.78-2.04,0-2.82h0Z"/></svg>