<?xml version="1.0" encoding="UTF-8"?><svg id="Layer_1" xmlns="http://www.w3.org/2000/svg" viewBox="0 0 32 32"><path d="M22.55,4.62c.22.22.22.59,0,.81-.22.22-.59.22-.81,0-.43-.43-1.19-.43-1.63,0-.11.11-.26.17-.41.17s-.29-.06-.41-.17c-.22-.22-.22-.59,0-.81.43-.43,1.01-.67,1.63-.67s1.19.24,1.62.67ZM29.38,14.76c-1.37,1.37-3.38,1.85-5.23,1.25-1.13-.37-2.32-.11-3.11.68l-4.33,4.33c-.81.81-1.11,2-.75,3.03.72,2.06.05,4.37-1.66,5.74-.92.73-2.05,1.1-3.19,1.1s-2.22-.35-3.13-1.06c-1.2-.93-1.92-2.33-1.99-3.82-1.27-.06-2.47-.59-3.38-1.5-1.13-1.13-1.66-2.69-1.47-4.27s1.12-2.98,2.52-3.81c1.26-.75,2.8-.9,4.22-.42,1.11.39,2.3.14,3.08-.65l4.33-4.34c.82-.82,1.1-2.01.74-3.03-.74-2.07-.08-4.38,1.64-5.75,1.82-1.46,4.48-1.48,6.32-.06,1.21.93,1.93,2.33,2,3.82,1.27.06,2.47.59,3.38,1.5,2,2.01,2,5.26,0,7.27h0ZM28.57,8.31c-.82-.82-1.95-1.24-3.11-1.16-.17.01-.33-.05-.45-.17s-.18-.28-.17-.45c.09-1.34-.49-2.63-1.55-3.45-1.43-1.1-3.49-1.09-4.9.05-1.34,1.07-1.85,2.86-1.27,4.47.51,1.44.12,3.1-1.01,4.23l-4.33,4.34c-1.1,1.1-2.73,1.46-4.27.93-1.1-.38-2.29-.26-3.26.32-1.1.66-1.82,1.74-1.97,2.97-.15,1.23.26,2.44,1.14,3.32.82.82,1.95,1.24,3.11,1.16h.04c.15,0,.3.06.41.17.12.12.18.28.17.45-.1,1.33.48,2.62,1.55,3.45,1.43,1.11,3.49,1.09,4.9-.03,1.34-1.06,1.86-2.85,1.29-4.46-.5-1.44-.1-3.09,1.02-4.22l4.34-4.34c1.09-1.09,2.73-1.46,4.27-.96,1.44.47,2.99.09,4.06-.97,1.56-1.56,1.56-4.09,0-5.64h0Z"/></svg>