<?xml version="1.0" encoding="UTF-8"?><svg id="Layer_1" xmlns="http://www.w3.org/2000/svg" viewBox="0 0 100 100"><path d="M4.98,82.37c.31.58.91.94,1.57.94h35.22c.66,0,1.26-.36,1.57-.94.31-.58.27-1.28-.1-1.83l-17.61-26c-.33-.49-.88-.78-1.47-.78s-1.14.29-1.47.78l-17.61,26c-.37.54-.41,1.25-.1,1.83ZM24.16,58.71l14.26,21.06H9.89l14.26-21.06Z"/><path d="M94.93,80.54l-17.61-26c-.66-.98-2.28-.98-2.94,0l-17.61,26c-.37.54-.41,1.25-.1,1.83.31.58.91.94,1.57.94h35.22c.66,0,1.26-.36,1.57-.94.31-.58.27-1.28-.1-1.83ZM61.58,79.76l14.26-21.06,14.26,21.06h-28.53Z"/><path d="M93.45,16.68h-35.22c-.66,0-1.26.36-1.57.94-.31.58-.27,1.28.1,1.83l17.61,26c.33.49.88.78,1.47.78s1.14-.29,1.47-.78l17.61-26c.37-.54.41-1.25.1-1.83-.31-.58-.91-.94-1.57-.94ZM75.84,41.29l-14.26-21.06h28.53l-14.26,21.06Z"/><path d="M4.98,17.63c-.31.58-.27,1.28.1,1.83l17.61,26c.33.49.88.78,1.47.78s1.14-.29,1.47-.78l17.61-26c.37-.54.41-1.25.1-1.83-.31-.58-.91-.94-1.57-.94H6.55c-.66,0-1.26.36-1.57.94ZM38.42,20.24l-14.26,21.06-14.26-21.06h28.52Z"/><path d="M51.54,31.88c-.33-.46-.87-.74-1.44-.74h0c-.57,0-1.11.28-1.44.74l-12.28,17.09c-.45.62-.45,1.46,0,2.08l12.31,17.07c.33.46.87.74,1.44.74h0c.57,0,1.11-.28,1.44-.74l12.28-17.09c.45-.62.45-1.46,0-2.08l-12.31-17.07ZM50.13,64.04l-10.12-14.03,10.09-14.04,10.12,14.03-10.09,14.04Z"/></svg>