<?xml version="1.0" encoding="UTF-8"?>
<svg id="Layer_1" xmlns="http://www.w3.org/2000/svg" version="1.1" viewBox="0 0 32 32">
  <!-- Generator: Adobe Illustrator 29.8.2, SVG Export Plug-In . SVG Version: 2.1.1 Build 3)  -->
  <path d="M16,.8c-4.7,0-8.6,4-8.6,8.9v3.6c-1.3,0-2.4,1.1-2.4,2.4v13.2c0,1.3,1.1,2.4,2.4,2.4h17.1c1.3,0,2.4-1.1,2.4-2.4v-13.2c0-1.3-1.1-2.4-2.4-2.4v-3.6c0-4.9-3.8-8.9-8.6-8.9h0ZM16,4.2c3,0,5.5,2.4,5.5,5.5v3.5h-11v-3.5c0-3,2.4-5.4,5.5-5.4h0ZM16,17.7c1.3,0,2.4,1.1,2.4,2.4s-.4,1.6-1.1,2c0,.1,0,.3,0,.4v2.8c0,.8-.6,1.4-1.4,1.4s-1.4-.6-1.4-1.4v-2.8c0-.1,0-.3,0-.4-.7-.4-1.1-1.2-1.1-2,0-1.3,1.1-2.4,2.4-2.4h0Z"/>
</svg>